<?xml version="1.0" encoding="utf-8"?>
<!-- Generator: Adobe Illustrator 17.0.0, SVG Export Plug-In . SVG Version: 6.00 Build 0)  -->
<!DOCTYPE svg PUBLIC "-//W3C//DTD SVG 1.1//EN" "http://www.w3.org/Graphics/SVG/1.1/DTD/svg11.dtd">
<svg version="1.1" id="图层_1" xmlns="http://www.w3.org/2000/svg" xmlns:xlink="http://www.w3.org/1999/xlink" x="0px" y="0px"
	 width="102.05px" height="85.04px" viewBox="0 0 102.05 85.04" enable-background="new 0 0 102.05 85.04" xml:space="preserve">
<g>
	<g>
		<g>
			<path fill="#65A131" d="M15.078,2.067c0,0-12.844,1.222-14.491,12.318c-0.733,4.948-1.428,23.692,10.126,28.487
				c17.067,7.083,32.064-4.422,29.465-22.409C39.19,13.619,37.589-1.401,15.078,2.067"/>
			<g>
				<path fill="#FFFFFF" d="M27.098,30.12h1.216v1.534c0,1.313,0.269,1.736,1.455,1.736h1.843v-1.327h-1.576
					c-0.211,0-0.24-0.058-0.24-0.409V30.12h1.807v-1.384h-7.556v1.384h1.595c-0.107,1.17-0.051,1.337-1.595,2.124v1.515
					C26.8,32.665,26.918,32.026,27.098,30.12"/>
				<path fill="#FFFFFF" d="M24.898,27.763h5.781v-0.007l0.009,0.007c0,0,0.49-0.068,0.635-0.286v-1.362
					c0,0-0.254,0.172-0.635,0.259c-0.003,0-0.006,0.002-0.009,0.003v-0.003h-5.781c-0.381-0.087-0.635-0.259-0.635-0.259v1.362
					C24.408,27.694,24.898,27.763,24.898,27.763"/>
				<path fill="#FFFFFF" d="M13.961,14.116v-2.306h3.598v-0.01l0.011,0.01c0,0,0.372,0.011,0.731-0.043c0,0,0.655-0.078,0.655-0.885
					v-0.002V9.732c-0.295,0.242-0.525,0.299-1.405,0.324H8.671c-0.235,0-0.43,0.038-0.589,0.089
					c-0.033,0.01-0.064,0.021-0.093,0.034c-0.001,0-0.004,0.001-0.006,0.002c-0.456,0.2-0.478,0.7-0.478,0.782v1.269
					c0.517-0.477,1.206-0.422,1.206-0.422h3.442v2.306h-2.005l0.035,0.012h-1.94c-0.236,0-0.431,0.037-0.59,0.088
					c-0.032,0.01-0.063,0.021-0.093,0.034c-0.003,0-0.004,0.001-0.006,0.002c-0.456,0.2-0.477,0.7-0.478,0.782v1.269
					c0.484-0.449,1.12-0.44,1.198-0.437H8.28h2.354h1.419c-0.394,1.568-1.83,3.432-4.442,4.391h0.001v0.001
					c-0.313,0.119-0.535,0.421-0.535,0.775c0,0.459,0.372,0.831,0.831,0.831c0.098,0,0.193-0.019,0.28-0.05l0.001,0.002
					c0,0,0,0.003-0.001,0.004c2.72-1.043,4.403-2.565,5.094-4.2c1.096,2.26,3.146,3.767,5.854,4.534v-1.807
					c-2.393-0.771-4.136-2.459-4.931-4.481h1.223l0.008,0.003h2.499v-0.003h0.007l0.004,0.003c0,0,0.371,0.012,0.731-0.043l0,0
					c0,0,0.655-0.078,0.655-0.884v-0.004v-1.148c-0.294,0.242-0.524,0.299-1.405,0.325H13.961z"/>
				<path fill="#FFFFFF" d="M28.535,14.116v-2.306h3.598v-0.01l0.012,0.01c0,0,0.37,0.011,0.73-0.043c0,0,0.655-0.078,0.655-0.885
					v-0.002V9.732c-0.295,0.242-0.524,0.299-1.405,0.324h-8.881c-0.236,0-0.43,0.038-0.59,0.089
					c-0.032,0.01-0.064,0.021-0.093,0.034c-0.002,0-0.004,0.001-0.006,0.002c-0.455,0.2-0.478,0.7-0.478,0.782v1.269
					c0.517-0.477,1.206-0.422,1.206-0.422h3.442v2.306h-2.005l0.034,0.012h-1.94c-0.236,0-0.43,0.037-0.59,0.088
					c-0.032,0.01-0.063,0.021-0.092,0.034c-0.002,0-0.004,0.001-0.006,0.002c-0.456,0.2-0.478,0.7-0.479,0.782v1.269
					c0.484-0.449,1.12-0.44,1.198-0.437h0.008h2.354h1.419c-0.395,1.568-1.83,3.432-4.442,4.391h0.001v0.001
					c-0.312,0.119-0.535,0.421-0.535,0.775c0,0.459,0.372,0.831,0.831,0.831c0.099,0,0.193-0.019,0.281-0.05l0,0.002l0,0.004
					c2.719-1.043,4.401-2.565,5.094-4.2c1.094,2.26,3.145,3.767,5.853,4.534v-1.807c-2.394-0.771-4.136-2.459-4.931-4.481h1.223
					l0.009,0.003h2.498v-0.003h0.008l0.003,0.003c0,0,0.372,0.012,0.731-0.043l0,0c0,0,0.654-0.078,0.654-0.884v-0.004v-1.148
					c-0.295,0.242-0.524,0.299-1.405,0.325H28.535z"/>
				<path fill="#FFFFFF" d="M17.533,30.462v-0.001h-3.859v-0.95h4.048c-0.009-0.002-0.014-0.005-0.014-0.005
					s0.941-0.034,0.941-1.039v-5.049c-0.223,0.271-1.765,0.3-1.765,0.3H8.57c-1.768,0-1.678,1.129-1.678,1.129v3.81
					c0,0,0.001,0.006,0.003,0.013v1.181c0.362-0.24,0.819-0.319,1.053-0.343c0.035,0.001,0.067,0.002,0.097,0.003h3.883v0.95h-3.99
					v0.006H7.663c-0.235,0-0.43,0.036-0.589,0.088c-0.033,0.011-0.064,0.02-0.092,0.034c-0.003,0-0.005,0.001-0.007,0.002
					c-0.456,0.199-0.478,0.699-0.479,0.782v0.923c0.485-0.449,1.121-0.44,1.198-0.437v0.016l0.008-0.015h0.236v0.002H11
					c-0.875,0.803-2.128,1.483-4.088,2.073c0.007,0.002,0.012,0.004,0.012,0.004v0.001c-0.316,0.088-0.549,0.379-0.549,0.724
					c0,0.416,0.337,0.754,0.753,0.754c0.09,0,0.176-0.017,0.258-0.046c1.698-0.517,3.436-1.218,4.542-2.349v3.016h1.746v-3.114
					c1.324,1.352,3.553,2.192,5.437,2.71v-1.517c-1.484-0.483-3.518-1.422-4.448-2.256h2.87v-0.005h0.18v-0.003h0.009l0.003,0.003
					c0,0,0.371,0.012,0.731-0.043l0,0c0,0,0.655-0.078,0.655-0.885c0-0.001,0-0.002,0-0.003v-0.788
					c-0.295,0.241-0.524,0.299-1.405,0.324H17.533z M13.674,25.149h3.215v0.792h-3.215V25.149z M13.674,27.272h3.215v0.806h-3.215
					V27.272z M11.928,28.078H8.581v-0.806h3.347V28.078z M11.928,25.941H8.581v-0.792h3.347V25.941z"/>
				<path fill="#FFFFFF" d="M32.099,23.763H22.88c-1.057,0-1.13,0.932-1.134,1.126v10.109c0,0,0.001,0.015,0.003,0.037
					c-0.002,0.028-0.003,0.052-0.003,0.064v1.183c0.422-0.279,0.969-0.342,1.147-0.351h0.535h8.715h0.639
					c0,0,0.232,0.029,0.485-0.062c0.2-0.059,0.426-0.198,0.534-0.508c0.066-0.155,0.107-0.354,0.107-0.605V23.466
					C33.906,23.815,32.099,23.763,32.099,23.763 M32.426,34.446h-9.284v-9.268h9.284V34.446z"/>
			</g>
		</g>
		<g>
			<path fill="#F6AB00" d="M52.31,3.755c0,0-7.489-0.432-9.413,5.8c-0.86,2.779-2.06,16.56,4.572,18.789
				c10.11,3.397,17.158,1.447,17.643-11.801C65.259,12.523,65.553,3.748,52.31,3.755"/>
			<g>
				<path fill="#FFFFFF" d="M49.044,17.845c-0.356-0.357-0.863-0.516-1.423-0.516h-1.327c-0.542,0-0.613,0.373-0.621,0.514v4.879
					h1.947c0.56,0,1.067-0.159,1.423-0.515c0.606-0.606,0.545-1.394,0.545-2.204C49.589,19.192,49.65,18.45,49.044,17.845
					 M48.309,21.449c-0.182,0.221-0.424,0.333-0.788,0.333h-0.795v-3.514h0.795c0.364,0,0.606,0.113,0.788,0.334
					c0.196,0.241,0.227,0.582,0.227,1.4C48.536,20.821,48.506,21.208,48.309,21.449"/>
				<path fill="#FFFFFF" d="M51.793,18.731c-0.659,0-1.038,0.12-1.424,0.544l0.293,0.285l0.021,0.021
					c0.061,0.056,0.261,0.195,0.589,0.078c0.037-0.019,0.074-0.035,0.115-0.048c0.001-0.001,0.002-0.002,0.004-0.003v0.001
					c0.099-0.031,0.216-0.046,0.364-0.046c0.522,0,0.735,0.189,0.735,0.622v0.196h-0.932c-0.916,0-1.348,0.515-1.348,1.143
					c0,0.35,0.114,0.668,0.326,0.887c0.234,0.234,0.561,0.349,1.008,0.349c0.454,0,0.704-0.114,0.968-0.379v0.007
					c0.008-0.018,0.013-0.029,0.013-0.029s-0.024,0.363,0.37,0.363h0.579v-2.598C53.475,19.2,52.9,18.731,51.793,18.731
					 M52.49,21.269c0,0.242-0.038,0.401-0.144,0.499c-0.174,0.167-0.349,0.189-0.622,0.189c-0.386,0-0.568-0.182-0.568-0.454
					c0-0.281,0.197-0.447,0.553-0.447h0.781V21.269z"/>
				<path fill="#FFFFFF" d="M57.201,18.775c-0.442,0-0.588,0.428-0.588,0.432l-0.65,2.008l-0.674-2.009v-0.001
					c-0.143-0.427-0.623-0.43-0.623-0.43h-0.559l1.349,3.666l-0.167,0.486c-0.098,0.286-0.211,0.354-0.492,0.354h-0.083
					c-0.612,0-0.606,0.735-0.606,0.735v0.151h0.849c0.326,0,0.622-0.076,0.848-0.304c0.121-0.12,0.212-0.287,0.296-0.506
					l1.689-4.584H57.201z"/>
				<path fill="#FFFFFF" d="M55.971,11.492h-0.601v2.444c0,0.55-0.357,0.736-0.675,0.736c-0.318,0-0.667-0.187-0.667-0.736v-1.933
					c0-0.491-0.392-0.512-0.443-0.512h-0.565v2.582c0,0.443,0.085,0.823,0.411,1.149c0.226,0.225,0.551,0.355,0.955,0.355
					c0.372,0,0.745-0.14,1.007-0.419v0.024c0.003,0.079,0.037,0.349,0.381,0.349h0.605v-3.701
					C56.331,11.524,56.048,11.494,55.971,11.492"/>
				<path fill="#FFFFFF" d="M58.052,9.837c-0.289,0-0.523,0.235-0.523,0.524c0,0.29,0.234,0.523,0.523,0.523
					c0.29,0,0.524-0.233,0.524-0.523C58.576,10.072,58.342,9.837,58.052,9.837"/>
				<path fill="#FFFFFF" d="M57.549,12.067v3.466h0.504v-0.001c0,0,0.505-0.019,0.505-0.587v-3.453h-0.505
					C57.549,11.492,57.549,12.067,57.549,12.067"/>
				<path fill="#FFFFFF" d="M61.528,14.68c-0.241,0-0.35-0.131-0.35-0.364v-1.772h0.329v-0.001h0.003l0.002,0.001
					c0,0,0.18,0.005,0.354-0.022c0,0,0.317-0.09,0.317-0.48v-0.055v-0.449c-0.04,0.032-0.076,0.057-0.118,0.077l0.118-0.077h-1.005
					v-1.122h-0.475c-0.475,0-0.533,0.469-0.533,0.469v0.685h-0.089v0.001h-0.004l-0.001-0.001c0,0-0.18-0.006-0.353,0.02
					c0,0-0.318,0.038-0.318,0.429h-0.001v0.558h0.766v1.803c0,0.573,0.348,1.155,1.171,1.155h0.552v-0.004
					c0.053-0.003,0.114-0.009,0.175-0.017c0,0,0.316-0.039,0.316-0.429l0.001-0.002v-0.556c-0.13,0.106-0.235,0.14-0.575,0.153
					H61.528z"/>
				<path fill="#FFFFFF" d="M51.55,11.844c-0.434,0-0.822,0.201-1.016,0.434v-0.347c-0.036-0.418-0.389-0.438-0.439-0.439H49.55
					v4.041h0.448l-0.001-0.001c0,0,0.561-0.034,0.561-0.637v-1.204c0-0.512,0.342-0.752,0.651-0.745
					c1.529,0.037,1.124-1.454,1.124-1.454C52.332,11.826,51.55,11.844,51.55,11.844"/>
				<path fill="#FFFFFF" d="M48.37,10.013v-0.002h-0.503h-1.575c-0.56,0-0.615,0.417-0.619,0.544v4.979h0.424l0-0.001
					c0,0,0.655-0.034,0.655-0.708v-1.532h1.242l0,0h0.253V13.29h0.004l0.001,0.002c0,0,0.204,0.006,0.4-0.024
					c0,0,0.357-0.042,0.357-0.483v-0.002V12.33h-0.712c-0.019,0.001-0.036,0.002-0.056,0.003h-0.249V12.33H47.64h-0.889v-1.356
					h0.877l0,0.001h0.716v-0.001h0.005l0.001,0.001c0,0,0.203,0.006,0.399-0.024c0,0,0.358-0.042,0.358-0.483v-0.001v-0.455h-0.676
					C48.414,10.012,48.393,10.013,48.37,10.013"/>
			</g>
		</g>
	</g>
	<g>
		<path fill="#91B23D" d="M18,65.482c0.001-0.002,0.001-0.002,0.002-0.003c0.245-0.405,0.459-0.735,0.644-0.989
			c-1.354-0.937-2.5-2.1-3.437-3.488c1.18-0.973,2.239-1.928,3.177-2.865l-0.873-0.743c-0.523-0.445-1.055,0.121-1.055,0.121l0,0
			c-0.611,0.655-1.306,1.331-2.083,2.028c-0.347-0.659-0.66-1.354-0.938-2.084v-2.082h-0.962c-0.764,0-0.756,0.81-0.756,0.81v8.46
			c0,0.626-0.26,0.938-0.781,0.938c-0.141,0-0.284-0.003-0.429-0.007c-0.038,0-0.077-0.001-0.122-0.005
			C9.32,65.495,9.4,66.182,9.438,66.357c0.003,0.013,0.006,0.026,0.009,0.04l0,0c0.046,0.183,0.091,0.379,0.136,0.593
			c0,0.173,0.017,0.295,0.052,0.365c0.972,0,1.667-0.036,2.083-0.104c1.146-0.105,1.719-0.73,1.719-1.875v-4.479
			c0.929,1.944,2.053,3.487,3.369,4.631C16.99,65.677,17.604,66.104,18,65.482"/>
		<path fill="#91B23D" d="M11.093,58.033h-3.63c-0.74,0-0.744,0.672-0.744,0.672v0.942H9.48c-0.535,1.781-1.389,3.269-2.559,4.466
			c-0.007,0.008-0.013,0.017-0.02,0.025c-0.409,0.463-0.397,0.848-0.322,1.084c0.043,0.082,0.086,0.165,0.13,0.25l0.001,0.001l0,0
			c0.12,0.235,0.246,0.479,0.375,0.736c0.033,0.068,0.052,0.121,0.052,0.155c2.048-1.7,3.367-3.975,3.957-6.822V58.033z"/>
		<path fill="#91B23D" d="M26.718,66.729v-2.134c0.905,0.936,2.191,1.686,3.856,2.254c0.128,0.038,0.726,0.177,1.029-0.451
			c0.002-0.003,0.003-0.005,0.004-0.008c0.117-0.276,0.257-0.562,0.424-0.857c-1.494-0.208-2.899-0.729-4.218-1.563h3.178
			c0,0,0.78-0.003,0.78-0.676v-0.886h-5.053v-0.834h3.159c0,0,0.8,0.004,0.8-0.796v-4.985h-8.799c-0.85,0-0.836,0.861-0.836,0.861
			v4.92H25v0.834h-4.232c-0.699,0-0.807,0.438-0.82,0.637v0.925h4.011c-0.805,0.61-1.856,1.107-3.147,1.496
			c-0.014,0.005-0.027,0.01-0.043,0.017c-0.887,0.295-0.491,1.038-0.491,1.038h-0.001c0.123,0.22,0.239,0.445,0.348,0.679
			C22.639,66.47,24.096,65.636,25,64.7v2.759h0.948C26.106,67.455,26.718,67.398,26.718,66.729 M26.718,57.147h2.292v0.886h-2.292
			V57.147z M26.718,59.387h2.292v0.886h-2.292V59.387z M25,60.272h-2.292v-0.886H25V60.272z M25,58.033h-2.292v-0.886H25V58.033z"/>
		<path fill="#91B23D" d="M35.615,63.97c-0.765,0-0.772,0.81-0.772,0.81v1.222h0.833c0,0.56-0.228,0.828-0.541,0.954
			c-0.009,0.005-0.022,0.012-0.039,0.017c-0.206,0.063-0.243,0.231-0.247,0.314v0.579c1.111,0,1.869-0.633,1.972-1.812V63.97H35.615
			z"/>
		<path fill="#91B23D" d="M49.187,58.158c0,0,0.537,0.451,1.093-0.064c0,0,0.001-0.001,0.002-0.002
			c0.204-0.195,0.39-0.368,0.554-0.515c-0.391-0.391-0.928-0.871-1.61-1.441c-0.462-0.388-0.9-0.069-1.038,0.054l-0.582,0.554
			C48.171,57.206,48.698,57.679,49.187,58.158L49.187,58.158z"/>
		<path fill="#91B23D" d="M51.331,65.24c0.019-0.084,0.039-0.172,0.059-0.264c0.073-0.474-0.102-0.697-0.242-0.797
			c-0.043-0.022-0.091-0.048-0.136-0.071c-0.007-0.003-0.013-0.005-0.013-0.005S51,64.103,51,64.102
			c-0.3-0.156-0.63-0.349-0.997-0.587c-0.104,0.833-0.227,1.476-0.365,1.928c-0.104,0.347-0.348,0.416-0.729,0.208
			c-0.278-0.175-0.521-0.521-0.729-1.043c0.839-0.698,1.608-1.457,2.312-2.27c0.454-0.596-0.074-1.058-0.074-1.058l-0.138-0.112
			l-0.642-0.519c-0.591,0.834-1.233,1.581-1.927,2.24c-0.14-0.659-0.244-1.458-0.312-2.396h3.243
			c0.098-0.001,0.767-0.033,0.767-0.768v-0.794h-4.062c-0.069-1.146-0.105-2.326-0.105-3.541h-1.026
			c-0.731,0-0.699,0.844-0.699,0.844v-0.001c0.047,0.94,0.085,1.841,0.111,2.698h-2.396v-1.406c0.406-0.041,0.785-0.088,1.143-0.141
			c0.047-0.016,0.703-0.242,0.539-0.923l-0.171-0.708c-1.385,0.17-2.818,0.315-4.295,0.439c-0.011,0.002-0.02,0.004-0.031,0.004
			c-0.904,0.08-0.907,0.616-0.892,0.757c0.02,0.131,0.04,0.268,0.063,0.416c0.035,0.243,0.052,0.4,0.052,0.469
			c0.137,0,0.329-0.017,0.573-0.053c0.52-0.034,0.902-0.068,1.146-0.104v1.25h-1.616c-0.595,0-0.623,0.512-0.624,0.594v0.969h2.239
			v1.614c-0.244,0-0.591,0.035-1.042,0.104c-0.14,0.009-0.271,0.019-0.393,0.028c-0.69,0.073-0.691,0.65-0.662,0.888l0.169,0.958
			c0.625-0.104,1.267-0.208,1.927-0.312v1.51c0,0.417-0.14,0.625-0.417,0.625c-0.137,0-0.27-0.004-0.404-0.007
			c-0.046,0.005-0.114,0.005-0.207-0.001c-0.602-0.041-0.68,0.264-0.649,0.507c0.029,0.091,0.056,0.186,0.083,0.288v0.002
			c0.052,0.212,0.098,0.453,0.137,0.722c0.868,0,1.58-0.035,2.135-0.104c0.798-0.036,1.198-0.487,1.198-1.354v-2.448
			c0.398-0.063,0.811-0.118,1.235-0.169v-0.001h0.007c0.062-0.007,0.125-0.015,0.189-0.021c0.237-0.054,0.608-0.232,0.626-0.84
			v-0.007c0.001-0.271,0.009-0.568,0.027-0.89c-0.209,0.035-0.557,0.088-1.043,0.157c-0.451,0.069-0.798,0.121-1.042,0.156v-1.406
			h2.501c0.033,1.181,0.19,2.378,0.469,3.593c-0.589,0.436-1.234,0.812-1.936,1.135c-0.004,0.002-0.006,0.004-0.011,0.007
			c-0.711,0.355-0.219,0.95-0.219,0.95l-0.001,0.001c0.197,0.251,0.366,0.49,0.5,0.72c0.763-0.416,1.51-0.833,2.24-1.249
			c0.625,1.215,1.527,1.823,2.708,1.823c0.625,0,1.094-0.312,1.407-0.938c0.136-0.205,0.274-0.594,0.411-1.159
			C51.305,65.338,51.316,65.292,51.331,65.24"/>
		<path fill="#91B23D" d="M57.869,57.736c0.163,0.201,0.516,0.474,1.073,0.078h0l0.643-0.445c-0.084-0.14-0.167-0.271-0.252-0.396
			c-0.001-0.001-0.001-0.002-0.002-0.003c-0.024-0.039-0.064-0.094-0.111-0.156c-0.12-0.169-0.24-0.325-0.36-0.464
			c-0.139-0.175-0.273-0.341-0.354-0.44c-0.009-0.013-0.017-0.025-0.026-0.037c-0.322-0.401-0.65-0.278-0.776-0.205l-0.93,0.608
			c0.208,0.278,0.537,0.712,0.989,1.302C57.8,57.634,57.834,57.686,57.869,57.736"/>
		<path fill="#91B23D" d="M58.388,66.677v-8.11h-0.942c-0.621,0-0.669,0.506-0.672,0.624v8.178h0.971
			C57.744,67.368,58.388,67.377,58.388,66.677"/>
		<path fill="#91B23D" d="M55.627,66.695V58.15c0.189-0.495,0.368-1.006,0.541-1.532c0.222-0.681-0.214-0.882-0.358-0.928
			l-1.068-0.3c-0.429,1.746-1.061,3.357-1.895,4.833c-0.001,0.002-0.002,0.005-0.004,0.008c-0.252,0.471-0.24,0.962-0.202,1.246
			c0.015,0.076,0.029,0.151,0.043,0.227c0.003,0.008,0.003,0.014,0.003,0.014h0c0.09,0.472,0.168,0.934,0.232,1.38
			c0.346-0.485,0.625-0.902,0.833-1.249c0.104-0.139,0.173-0.243,0.209-0.313v5.833h1.056
			C55.017,67.368,55.627,67.377,55.627,66.695"/>
		<path fill="#91B23D" d="M60.972,56.171c-0.829,0-0.865,0.622-0.866,0.716v0.951h2.5v6.771c0,0.8-0.381,1.197-1.146,1.197h-1.134
			c-0.718,0-0.532,0.586-0.532,0.586l-0.003-0.001c0.095,0.324,0.167,0.666,0.21,1.029c0.278,0,0.694-0.018,1.251-0.052h1.093
			c1.25-0.104,1.875-0.885,1.875-2.343v-8.854H60.972z"/>
		<path fill="#91B23D" d="M76.773,61.718v-5.859H68.1c-0.918,0-0.962,0.733-0.962,0.851v6.024h8.684
			C75.822,62.733,76.773,62.721,76.773,61.718 M74.949,61.223h-5.988v-3.802h5.988V61.223z"/>
		<path fill="#91B23D" d="M70.592,64.021l-0.183-0.143l-0.927-0.729c-0.944,1.029-1.947,1.903-3.009,2.626
			c-0.007,0.007-0.013,0.012-0.022,0.018c-0.55,0.396-0.33,0.778-0.211,0.924l0.793,0.859c1.142-0.751,2.27-1.672,3.386-2.762
			C70.814,64.438,70.722,64.171,70.592,64.021"/>
		<path fill="#91B23D" d="M76.128,67.006c0,0,0.537,0.522,1.08,0l0,0l0.868-0.835c-0.953-0.833-2.033-1.704-3.24-2.614
			c-0.597-0.449-1.095,0.002-1.098,0.003l-0.714,0.685c1.061,0.883,2.093,1.807,3.103,2.764L76.128,67.006z"/>
		<path fill="#91B23D" d="M82.653,62.215c0,0,0.523-0.225,0.441-0.877v-0.002c-0.054-0.404-0.094-0.739-0.122-0.998l-0.465,0.203
			c-0.164,0.054-0.289,0.107-0.369,0.161v-1.511h0.417c0,0,0.504,0.006,0.572-0.415v-1.095h-0.99v-2.24h-1.1
			c-0.499,0-0.561,0.411-0.567,0.561v1.68h-0.654c-0.554,0-0.544,0.555-0.544,0.555v0.955h1.198v2.084
			c-0.249,0.082-0.505,0.174-0.766,0.269c-0.465,0.177-0.447,0.662-0.422,0.848l0.013,0.074l0,0l0.185,1.049
			c0.105-0.033,0.243-0.085,0.418-0.156c0.241-0.104,0.433-0.19,0.572-0.261v2.239c0,0.417-0.121,0.626-0.364,0.626
			c-0.098,0-0.186-0.001-0.271-0.003h-0.001c-0.553-0.032-0.544,0.396-0.52,0.566c0.004,0.023,0.008,0.043,0.012,0.066v0.002
			c0.017,0.095,0.034,0.196,0.051,0.305c0.035,0.242,0.069,0.418,0.104,0.521c0.694,0,1.215-0.034,1.564-0.103
			c0.728-0.071,1.093-0.539,1.093-1.407v-3.489c0.069-0.034,0.156-0.069,0.26-0.103C82.489,62.28,82.574,62.246,82.653,62.215"/>
		<path fill="#91B23D" d="M85.76,55.441c-0.657,0-0.654,0.677-0.654,0.677v3.542c-0.009-0.037-0.022-0.08-0.037-0.126l-0.494-1.575
			c-0.061-0.199-0.119-0.38-0.174-0.543c-0.105-0.316-0.368-0.271-0.462-0.243l-0.035,0.012l-0.83,0.289
			c0.243,0.868,0.416,1.476,0.521,1.822c0.058,0.208,0.11,0.39,0.157,0.552c0,0,0.179,0.533,0.657,0.367l0.697-0.242v0.729
			c-0.578,0.526-1.164,1.025-1.758,1.498c-0.007,0.006-0.01,0.009-0.017,0.015c-0.636,0.518-0.247,1.051-0.247,1.051l0.616,0.77
			c0.382-0.415,0.833-0.885,1.354-1.405c-0.086,1.409-0.605,2.51-1.56,3.302c-0.539,0.536-0.096,0.942-0.096,0.942h-0.003
			c0.339,0.248,0.635,0.482,0.878,0.703c1.459-1.076,2.239-2.726,2.343-4.947c0.035-0.799,0.053-1.754,0.053-2.865v-4.323H85.76z"/>
		<path fill="#91B23D" d="M91.425,64.983c0.034-0.503-0.242-0.7-0.37-0.765c-0.022-0.01-0.041-0.018-0.064-0.027
			c-0.348-0.138-0.692-0.226-0.866-0.295l-0.02,0.868v0.156c0,0.555-0.156,0.851-0.468,0.885h-0.261
			c-0.208,0-0.33-0.138-0.365-0.416v-3.125c0.356,0.294,0.691,0.572,1.009,0.84l0,0c0,0,0.602,0.521,0.971-0.022l0.521-0.765
			c-0.971-0.695-1.806-1.269-2.5-1.72v-0.781l0.99,0.521c0.069-0.104,0.157-0.242,0.261-0.417c0.333-0.601,0.616-1.114,0.85-1.544
			c0.336-0.614-0.167-0.882-0.252-0.922L90.85,57.45l-0.002-0.001l-0.846-0.393c-0.313,0.694-0.643,1.406-0.99,2.135v-3.75h-0.968
			c-0.591,0-0.594,0.677-0.594,0.677v9.48c0,1.109,0.468,1.666,1.406,1.666h0.729c0.972,0,1.527-0.399,1.667-1.198
			c0.069-0.416,0.122-0.729,0.156-0.938C91.413,65.078,91.42,65.031,91.425,64.983"/>
		<path fill="#91B23D" d="M17.687,73.73c0,0,0.819-0.02,0.819-0.859v-0.704H12.1c0.035-0.069,0.086-0.208,0.157-0.417
			c0.138-0.277,0.243-0.484,0.312-0.625l-1.204-0.189c-0.598-0.094-0.821,0.128-0.903,0.283c-0.014,0.043-0.03,0.084-0.045,0.127
			c0,0.005-0.001,0.009-0.001,0.009l-0.002-0.001c-0.102,0.284-0.216,0.557-0.345,0.813H7.021c-0.569,0-0.597,0.524-0.597,0.611
			v0.952h2.864c-0.641,1.104-1.441,2.111-2.397,3.021c-0.006,0.006-0.009,0.01-0.013,0.016c-0.379,0.383-0.454,0.742-0.448,0.981
			c0.017,0.091,0.036,0.188,0.053,0.292l0.001,0.002H6.483c0.015,0.086,0.031,0.174,0.045,0.27c0.104,0.383,0.173,0.678,0.208,0.886
			c0.625-0.521,1.215-1.041,1.771-1.563v5.312h1.017c0,0,0.754,0.01,0.754-0.772v-1.623h5.261v0.208
			c0,0.452-0.226,0.678-0.678,0.678c-0.253,0-0.523-0.004-0.802-0.011h-0.012c-1.04,0-0.845,0.895-0.845,0.895s-0.002,0-0.002-0.001
			c0.058,0.219,0.11,0.443,0.151,0.679h1.146c0.486-0.035,0.851-0.053,1.094-0.053c1.18,0,1.771-0.537,1.771-1.613v-6.719h-6.563
			c0.208-0.277,0.382-0.573,0.521-0.885H17.687z M15.537,79.25h-5.261v-0.938h5.261V79.25z M15.538,77.011h-5.261v-0.938h5.261
			V77.011z"/>
		<path fill="#91B23D" d="M31.015,78.052c0,0,0.773,0.017,0.773-0.799v-0.814h-2.969c0.353-0.304,0.717-0.681,1.09-1.132
			c0.315-0.504,0.028-0.804-0.093-0.899l-0.736-0.522c-0.339,0.407-0.669,0.773-0.994,1.106c-0.006,0.007-0.008,0.012-0.015,0.018
			c-0.456,0.487,0,0.923,0,0.923l0.591,0.507h-1.979v-2.553h2.396h1.296c0,0,0.735-0.015,0.735-0.694v-0.92h-4.427v-1.354h-1.131
			c-0.681,0-0.692,0.613-0.692,0.613v0.741h-3.73c-0.587,0-0.641,0.507-0.644,0.645v0.97h1.927l-0.669,0.485
			c-0.457,0.332-0.072,0.855-0.009,0.936c0.05,0.062,0.101,0.125,0.156,0.193c0.347,0.452,0.59,0.766,0.729,0.938h-2.012
			c-0.706,0-0.747,0.584-0.748,0.695v0.918h3.906c-0.911,0.967-1.967,1.766-3.164,2.403c-0.013,0.008-0.025,0.017-0.04,0.025
			c-0.579,0.33-0.454,0.836-0.374,1.036c0.021,0.054,0.039,0.085,0.039,0.085h-0.001c0.178,0.229,0.35,0.469,0.52,0.722
			c1.701-0.902,3.073-2.014,4.114-3.333v3.957h1.032c0,0,0.791-0.03,0.791-0.991v-3.019c0.839,1.141,1.978,2.111,3.415,2.913
			c0.142,0.069,0.736,0.31,1.152-0.243c0.002-0.002,0.002-0.003,0.003-0.004c0.219-0.293,0.432-0.574,0.638-0.843
			c-1.666-0.625-3.073-1.527-4.219-2.709H31.015z M24.86,76.438h-2.083l0.685-0.507l0.001-0.001l0.012-0.009
			c0.075-0.056,0.483-0.397,0.071-0.882c-0.316-0.374-0.573-0.674-0.768-0.894c-0.105-0.104-0.191-0.19-0.261-0.261h2.343V76.438z"
			/>
		<path fill="#91B23D" d="M37.167,73.75c0,0,0.705,0.46,1.146-0.143l0.558-0.763c-0.896-0.56-1.754-1.06-2.581-1.506
			c-0.57-0.293-0.903,0.11-0.955,0.18l-0.579,0.805C35.494,72.733,36.301,73.211,37.167,73.75L37.167,73.75z"/>
		<path fill="#91B23D" d="M36.004,76.464c0,0,0.599,0.352,1.067-0.056l0,0l0.707-0.908c-0.917-0.583-1.797-1.118-2.647-1.612
			c-0.582-0.333-0.898,0.021-0.97,0.118l-0.016,0.022l-0.001,0.001l-0.585,0.846C34.072,75.165,34.891,75.697,36.004,76.464
			L36.004,76.464z"/>
		<path fill="#91B23D" d="M43.2,82.508c0,0,0.007,0.004,0.017,0.01c0.025,0.017,0.05,0.032,0.076,0.048
			c0.212,0.121,0.751,0.346,1.171-0.188h0l0.655-0.835c-1.597-0.902-3.125-1.684-4.583-2.344c0.034-0.104,0.086-0.225,0.156-0.364
			c0.035-0.104,0.052-0.174,0.052-0.208h3.612c0,0,0.815-0.007,0.815-0.76v-0.856h-4.114c0.105-1.042,0.174-2.569,0.209-4.583
			c0.034-0.626,0.052-1.111,0.052-1.459h-1.106c-0.753,0-0.785,0.781-0.785,0.781l-0.002-0.003c-0.043,1.755-0.122,3.51-0.242,5.264
			h-5.251c-0.809,0-0.842,0.663-0.843,0.747v0.008v0.86h5.625c-0.401,1.051-1.948,1.949-4.633,2.697
			c-0.007,0.002-0.011,0.004-0.017,0.007c-0.839,0.249-0.34,1.025-0.34,1.025h-0.003c0.174,0.227,0.346,0.475,0.514,0.75
			c2.396-0.661,4.167-1.512,5.313-2.553C40.97,81.238,42.187,81.889,43.2,82.508L43.2,82.508z"/>
		<path fill="#91B23D" d="M53.784,78.903c0,0,0.57,0.771,1.318,0.272l0.748-0.499c-0.511-0.807-1.012-1.508-1.503-2.107
			c-0.374-0.464-0.889-0.167-1.016-0.08l-0.814,0.572C52.92,77.593,53.342,78.207,53.784,78.903"/>
		<path fill="#91B23D" d="M55.016,72.949c0.208-0.522,0.399-1.06,0.573-1.615l-0.871-0.218c-0.688-0.172-0.932,0.215-1.003,0.384
			c-0.56,1.539-1.133,2.804-1.72,3.791v-2.395h-2.083c0.034-0.068,0.07-0.191,0.104-0.364c0.173-0.556,0.312-0.99,0.416-1.303
			l-0.856-0.146c-0.959-0.153-1.168,0.667-1.168,0.667c-0.088,0.337-0.194,0.718-0.319,1.146h-0.646
			c-0.647,0-0.656,0.755-0.656,0.755v9.245h1.72h1.77h0.719c0.14-0.002,0.999-0.043,0.999-0.923V75.5
			c0.315,0.13,0.598,0.265,0.854,0.404l0,0c0,0,0.006,0.005,0.016,0.01c0.017,0.01,0.034,0.02,0.051,0.029
			c0.165,0.089,0.601,0.256,0.861-0.242c0.062-0.124,0.128-0.257,0.197-0.41c0.176-0.312,0.295-0.537,0.366-0.676h2.135
			c0,1.181-0.018,2.361-0.053,3.542c-0.035,0.902-0.052,1.614-0.052,2.136c-0.035,0.59-0.417,0.884-1.146,0.884
			c-0.28,0-0.556-0.007-0.83-0.02c-0.008,0-0.016,0-0.026,0c-0.939-0.018-0.77,0.829-0.77,0.829l-0.002-0.002
			c0.066,0.268,0.125,0.551,0.17,0.859c1.007,0,1.806-0.018,2.395-0.052c1.181-0.069,1.824-0.747,1.928-2.031
			c0.068-2.812,0.121-5.416,0.156-7.811H55.016z M50.277,81.35H48.29v-3.088h1.986V81.35z M50.277,76.646H48.29v-2.136h1.986V76.646
			z"/>
		<path fill="#91B23D" d="M63.226,78.903l0.279-7.101h-1.199c-0.794,0-0.805,0.747-0.802,0.862l0,0.017l0,0l0.231,7.039h0.948
			C62.835,79.707,63.198,79.606,63.226,78.903"/>
		<path fill="#91B23D" d="M62.728,82.584c0.218-0.017,0.673-0.14,0.673-0.89v-0.985h-1.123c-0.699,0-0.7,0.718-0.7,0.718v1.157
			H62.728z"/>
		<path fill="#91B23D" d="M97.411,71.463c0.254,0,0.461-0.207,0.461-0.461c0-0.254-0.207-0.461-0.461-0.461
			c-0.254,0-0.46,0.207-0.46,0.461C96.951,71.256,97.157,71.463,97.411,71.463"/>
		<path fill="#91B23D" d="M85.194,78.21c-0.32-0.32-0.776-0.464-1.281-0.464h-1.194c-0.488,0-0.552,0.335-0.558,0.461v4.395h1.753
			c0.504,0,0.961-0.144,1.281-0.464c0.546-0.547,0.492-1.255,0.492-1.984S85.739,78.755,85.194,78.21 M84.533,81.455
			c-0.163,0.198-0.381,0.301-0.709,0.301h-0.716v-3.165h0.716c0.328,0,0.546,0.103,0.709,0.302c0.178,0.218,0.205,0.524,0.205,1.261
			C84.738,80.89,84.711,81.238,84.533,81.455"/>
		<path fill="#91B23D" d="M79.493,71.961c0,0.293-0.689,0.309-0.689,0.309c-0.38,0-0.723,0.177-0.893,0.381v-0.305
			c-0.032-0.367-0.343-0.384-0.387-0.385h-0.479v3.553h0.887v-1.619c0-0.45,0.3-0.661,0.573-0.654
			C79.849,73.271,79.493,71.961,79.493,71.961"/>
		<path fill="#91B23D" d="M75.858,79.05h-0.528v2.148c0,0.483-0.314,0.648-0.593,0.648c-0.28,0-0.586-0.165-0.586-0.648v-1.699
			c0-0.431-0.344-0.448-0.39-0.448h-0.497v2.27c0,0.39,0.075,0.724,0.362,1.011c0.198,0.197,0.484,0.312,0.839,0.312
			c0.327,0,0.654-0.123,0.887-0.368v0.021c0.002,0.07,0.031,0.307,0.334,0.307h0.532v-3.253
			C76.173,79.077,75.924,79.051,75.858,79.05"/>
		<path fill="#91B23D" d="M77.553,77.593c-0.254,0-0.461,0.206-0.461,0.461c0,0.255,0.207,0.461,0.461,0.461
			c0.254,0,0.461-0.206,0.461-0.461C78.013,77.799,77.807,77.593,77.553,77.593"/>
		<path fill="#91B23D" d="M87.67,79.008c-0.594,0-0.934,0.109-1.283,0.49l0.264,0.257l0.019,0.019
			c0.056,0.051,0.235,0.176,0.532,0.07c0.033-0.017,0.066-0.031,0.103-0.044l0.003-0.001l0,0c0.09-0.027,0.194-0.041,0.328-0.041
			c0.47,0,0.661,0.17,0.661,0.559v0.178h-0.838c-0.825,0-1.215,0.464-1.215,1.029c0,0.314,0.104,0.602,0.294,0.799
			c0.211,0.211,0.505,0.313,0.907,0.313c0.409,0,0.634-0.102,0.873-0.341v0.006c0.007-0.017,0.011-0.027,0.011-0.027
			s-0.02,0.328,0.334,0.328h0.522v-2.34C89.184,79.431,88.665,79.008,87.67,79.008 M88.297,81.292c0,0.218-0.034,0.361-0.129,0.45
			c-0.157,0.149-0.313,0.17-0.56,0.17c-0.348,0-0.512-0.163-0.512-0.409c0-0.251,0.178-0.402,0.5-0.402h0.702V81.292z"/>
		<path fill="#91B23D" d="M92.539,79.048c-0.398,0-0.529,0.385-0.53,0.389l-0.584,1.809l-0.607-1.81v-0.001
			c-0.129-0.384-0.561-0.387-0.561-0.387h-0.502l1.213,3.302l-0.15,0.436c-0.088,0.26-0.19,0.32-0.442,0.32h-0.076
			c-0.55,0-0.544,0.661-0.544,0.661v0.138h0.763c0.294,0,0.56-0.068,0.764-0.273c0.109-0.108,0.191-0.258,0.266-0.456l1.521-4.127
			H92.539z"/>
		<path fill="#91B23D" d="M82.622,72.017c-0.399,0-0.529,0.385-0.53,0.388l-0.584,1.809l-0.607-1.809L80.9,72.402
			c-0.128-0.384-0.56-0.386-0.56-0.386h-0.503l1.213,3.301l-0.15,0.437c-0.088,0.259-0.19,0.32-0.442,0.32h-0.076
			c-0.552,0-0.545,0.661-0.545,0.661v0.137h0.764c0.293,0,0.559-0.068,0.764-0.272c0.108-0.109,0.19-0.259,0.266-0.457l1.521-4.126
			H82.622z"/>
		<path fill="#91B23D" d="M77.11,79.555v3.047h0.443l0,0c0,0,0.443-0.017,0.443-0.517V79.05h-0.443
			C77.11,79.05,77.11,79.555,77.11,79.555"/>
		<path fill="#91B23D" d="M97.855,75.033v-3.036h-0.443c-0.444,0-0.443,0.506-0.443,0.506v3.048h0.444l-0.001-0.001
			C97.411,75.55,97.855,75.533,97.855,75.033"/>
		<path fill="#91B23D" d="M80.608,81.852c-0.211,0-0.307-0.115-0.307-0.319v-1.56h0.289l0,0h0.003h0.001
			c0,0,0.158,0.005,0.312-0.019c0,0,0.278-0.079,0.278-0.423v-0.048v-0.396c-0.034,0.029-0.066,0.051-0.104,0.068l0.104-0.068
			h-0.883v-0.986h-0.417c-0.418,0-0.469,0.413-0.469,0.413v0.601h-0.079v0.002h-0.003l-0.002-0.002c0,0-0.158-0.005-0.311,0.019
			c0,0-0.28,0.033-0.28,0.377l0,0v0.49h0.674v1.585c0,0.505,0.307,1.016,1.029,1.016h0.485v-0.003
			c0.046-0.003,0.1-0.007,0.154-0.015c0,0,0.279-0.033,0.279-0.377l0-0.002v-0.488c-0.115,0.095-0.207,0.123-0.506,0.135H80.608z"/>
		<path fill="#91B23D" d="M100.035,74.764c-0.169,0-0.321-0.021-0.458-0.061c-0.025,0.009-0.074-0.005-0.153-0.054
			c-0.002-0.001-0.003-0.003-0.004-0.004c-0.035-0.015-0.067-0.032-0.099-0.05c-0.169-0.071-0.292-0.037-0.374,0.016l-0.39,0.391
			c0.198,0.198,0.424,0.334,0.68,0.409c0.202,0.057,0.463,0.086,0.786,0.086c0.427,0,0.773-0.092,1.037-0.277
			c0.282-0.198,0.422-0.48,0.422-0.845c0-0.607-0.341-0.945-1.023-1.012l-0.542-0.052c-0.238-0.021-0.357-0.121-0.357-0.298
			c0-0.22,0.164-0.33,0.489-0.33c0.167,0,0.312,0.018,0.439,0.051v-0.001c0,0,0.001,0.001,0.004,0.002
			c0.024,0.007,0.047,0.014,0.07,0.021c0.125,0.028,0.388,0.048,0.639-0.201l0.174-0.176c-0.286-0.269-0.724-0.402-1.314-0.402
			c-0.37,0-0.678,0.092-0.924,0.277c-0.269,0.202-0.404,0.476-0.404,0.819c0,0.576,0.334,0.897,1.004,0.964l0.542,0.052
			c0.241,0.023,0.363,0.129,0.363,0.317C100.643,74.645,100.441,74.764,100.035,74.764"/>
		<path fill="#91B23D" d="M72.235,79.357c-0.38,0-0.722,0.177-0.893,0.382v-0.305C71.309,79.066,71,79.05,70.956,79.05h-0.479v3.552
			h0.395H70.87c0,0,0.493-0.029,0.493-0.56v-1.06c0-0.45,0.3-0.661,0.573-0.654c1.344,0.031,0.988-1.278,0.988-1.278
			C72.924,79.343,72.235,79.357,72.235,79.357"/>
		<path fill="#91B23D" d="M76.408,73.545c-0.013-0.449-0.142-0.815-0.388-1.1c-0.273-0.312-0.643-0.468-1.109-0.468
			c-0.454,0-0.814,0.152-1.083,0.455c-0.277,0.317-0.415,0.751-0.415,1.302c0,1.175,0.529,1.763,1.591,1.763
			c0.295,0,0.545-0.046,0.753-0.139c0.18-0.079,0.366-0.213,0.555-0.402l-0.241-0.235c-0.165-0.16-0.442-0.102-0.602-0.048
			c-0.038,0.018-0.078,0.033-0.118,0.046c-0.003,0.002-0.003,0.002-0.003,0.002h0.001c-0.106,0.032-0.218,0.05-0.337,0.05
			c-0.234,0-0.418-0.07-0.552-0.212c-0.134-0.14-0.202-0.325-0.202-0.554h1.718c0.054-0.001,0.41-0.016,0.434-0.312v-0.072
			C76.407,73.587,76.407,73.562,76.408,73.545 M74.257,73.417c0.005-0.141,0.03-0.265,0.079-0.37
			c0.106-0.237,0.296-0.356,0.575-0.356c0.277,0,0.469,0.119,0.574,0.356c0.049,0.105,0.075,0.229,0.08,0.37H74.257z"/>
		<path fill="#91B23D" d="M72.246,72.356L72.246,72.356l-0.582,1.787l-0.599-1.817c-0.088-0.27-0.354-0.306-0.456-0.31h-0.55
			l1.267,3.44h0.35c0.067-0.001,0.335-0.03,0.456-0.357l1.13-3.083h-0.509C72.367,72.017,72.246,72.356,72.246,72.356"/>
		<path fill="#91B23D" d="M69.913,75.09c0-0.017,0.001-0.032,0.003-0.045v-0.406h-2.179v-1.143h1.496c0,0,0.36,0.003,0.36-0.324
			v-0.494h-1.856v-1.102h1.812c0,0,0.368-0.006,0.368-0.356v-0.463h-2.717c-0.333,0-0.376,0.26-0.38,0.356v4.345h2.711
			C69.643,75.442,69.916,75.376,69.913,75.09"/>
		<path fill="#91B23D" d="M69.44,77.749v-0.002h-0.442h-1.384c-0.492,0-0.542,0.366-0.545,0.478v4.377h0.373h0
			c0,0,0.576-0.029,0.576-0.622v-1.348h1.092h0.223V80.63h0.003l0.001,0.002c0,0,0.178,0.005,0.352-0.021
			c0,0,0.315-0.037,0.315-0.426v-0.001v-0.397h-0.627c-0.016,0.001-0.032,0.001-0.049,0.001h-0.218v-0.001h-0.31h-0.782v-1.194
			h0.771l0,0.002h0.629v-0.002h0.004l0.001,0.002c0,0,0.178,0.005,0.352-0.021c0,0,0.314-0.037,0.314-0.425v-0.002v-0.398h-0.594
			C69.478,77.747,69.461,77.748,69.44,77.749"/>
		<path fill="#91B23D" d="M86.786,71.005c-0.321-0.32-0.777-0.464-1.281-0.464h-1.195c-0.488,0-0.551,0.336-0.558,0.463v4.393h1.753
			c0.504,0,0.96-0.143,1.281-0.462c0.545-0.547,0.491-1.256,0.491-1.985C87.277,72.219,87.331,71.551,86.786,71.005 M86.124,74.251
			c-0.163,0.198-0.381,0.301-0.709,0.301h-0.716v-3.165h0.716c0.328,0,0.546,0.103,0.709,0.301c0.178,0.218,0.205,0.524,0.205,1.262
			C86.329,73.686,86.302,74.033,86.124,74.251"/>
		<path fill="#91B23D" d="M89.262,71.804c-0.594,0-0.935,0.108-1.283,0.491l0.263,0.255l0.02,0.02
			c0.056,0.05,0.234,0.176,0.53,0.069c0.033-0.017,0.066-0.031,0.104-0.043c0.001-0.001,0.002-0.001,0.004-0.002v0.001
			c0.09-0.028,0.194-0.041,0.328-0.041c0.47,0,0.661,0.17,0.661,0.559v0.178H89.05c-0.825,0-1.215,0.463-1.215,1.028
			c0,0.314,0.104,0.602,0.294,0.799c0.211,0.211,0.504,0.313,0.907,0.313c0.41,0,0.634-0.103,0.873-0.341v0.006
			c0.006-0.017,0.011-0.026,0.011-0.026s-0.021,0.327,0.333,0.327h0.521v-2.339C90.775,72.225,90.257,71.804,89.262,71.804
			 M89.889,74.088c0,0.218-0.034,0.361-0.13,0.449c-0.157,0.15-0.312,0.17-0.559,0.17c-0.347,0-0.512-0.162-0.512-0.408
			c0-0.252,0.178-0.402,0.499-0.402h0.702V74.088z"/>
		<path fill="#91B23D" d="M94.131,71.844c-0.398,0-0.529,0.385-0.53,0.388l-0.584,1.808l-0.607-1.809v-0.001
			c-0.129-0.383-0.561-0.386-0.561-0.386h-0.502l1.214,3.301l-0.15,0.437c-0.088,0.259-0.19,0.319-0.442,0.319h-0.076
			c-0.551,0-0.545,0.662-0.545,0.662v0.136h0.764c0.293,0,0.559-0.067,0.764-0.272c0.108-0.108,0.19-0.258,0.265-0.457l1.521-4.125
			H94.131z"/>
	</g>
</g>
<g>
	<rect id="_x3C_切片_x3E_" x="-0.568" y="0.02" fill="none" width="102.047" height="85"/>
</g>
</svg>
